<svg width="120" height="120" viewBox="0 0 120 120" fill="none" xmlns="http://www.w3.org/2000/svg">
<path d="M39.9299 96.5026C39.3446 95.4239 39.1373 94.1803 39.3412 92.9701H14.4262L51.4349 27.8138L67.0312 55.6013L71.9362 51.9413L56.5349 24.2513C56.0198 23.3047 55.2797 22.4993 54.3798 21.9061C53.4799 21.313 52.448 20.9503 51.3749 20.8501C50.2943 20.8947 49.2483 21.2436 48.3573 21.8566C47.4663 22.4696 46.7665 23.3218 46.3387 24.3151L8.83866 90.2888C8.26828 91.2137 7.93947 92.2671 7.88247 93.3522C7.82546 94.4373 8.04208 95.5193 8.51241 96.4988C9.08279 97.4076 9.89717 98.1378 10.8626 98.6059C11.828 99.074 12.9056 99.2613 13.9724 99.1463H45.3749C44.3102 99.2649 43.2337 99.0816 42.2682 98.6175C41.3027 98.1533 40.4872 97.4269 39.9149 96.5214L39.9299 96.5026Z" fill="#00C58E"/>
<path d="M111.135 90.4201L80.9588 36.8363C80.4683 35.8893 79.7469 35.0812 78.8614 34.4867C77.9759 33.8922 76.9548 33.5305 75.8926 33.4351C74.8369 33.4798 73.8157 33.8232 72.9474 34.4253C72.0792 35.0273 71.3996 35.8634 70.9876 36.8363L66.9976 43.2113V55.5863L75.8888 40.3201L105.705 93.0863H94.3613C94.5419 94.1546 94.3818 95.2527 93.9038 96.2251L93.8063 96.4201C93.192 97.2912 92.3724 97.9974 91.42 98.4762C90.4676 98.955 89.4119 99.1916 88.3463 99.1651H106.099C107.165 99.1946 108.222 98.9593 109.175 98.4802C110.127 98.0012 110.947 97.2933 111.559 96.4201C112.038 95.4736 112.249 94.4139 112.168 93.3562C112.088 92.2984 111.719 91.2829 111.101 90.4201H111.135Z" fill="#108775"/>
<path d="M94.6237 96.3751L94.7212 96.1801L94.9837 95.6589C95.3038 94.8224 95.383 93.9131 95.2125 93.0339C95.045 92.0743 94.7017 91.1538 94.2 90.3189L70.6275 49.4439L67.065 43.2339H67.0012L63.405 49.4139L39.8662 90.2889C39.4075 91.1226 39.0979 92.0299 38.9512 92.9701C38.7291 94.1765 38.9249 95.4225 39.5062 96.5026C40.0988 97.4118 40.9321 98.1385 41.9133 98.602C42.8946 99.0655 43.9852 99.2475 45.0637 99.1276H88.9687C90.0668 99.1626 91.1566 98.9275 92.1425 98.443C93.1285 97.9585 93.9805 97.2394 94.6237 96.3489V96.3751ZM66.9975 55.6351L88.575 93.0001H45.42L66.9975 55.6351Z" fill="#2F495E"/>
</svg>
